{"title":"Armaan 2003 DvDrip 1CD X264 AAC [RRG DBB][DADA] ","uid":8263325,"size":850784212,"categoryP":"video","categoryS":"movies","magnet":"?xt=urn:btih:5bd3886d7157f6dbc7d24b37f006c6b5b328ccaf&amp;dn=Armaan+2003+DvDrip+1CD+X264+AAC+%5BRRG+DBB%5D%5BDADA%5D+&amp;tr=udp%3A%2F%2Ftracker.openbittorrent.com%3A80&amp;tr=udp%3A%2F%2Fopen.demonii.com%3A1337&amp;tr=udp%3A%2F%2Ftracker.coppersurfer.tk%3A6969&amp;tr=udp%3A%2F%2Fexodus.desync.com%3A6969","seeders":1,"leechers":2,"uploader":"brego45","files":1,"time":1363393747,"description":"Armaan 2003 DvDrip 1CD X264 AAC [RRG DBB][DADA] \n\n\n-: Cover :- \n\n\n &lt;a href=&quot;\nhttp://desibbrg.net/imghost/show.php?img=430137_Armaan.2003.DvDrip.1CD.X264.AAC.RRG.DADA..jpg.html&quot; rel=&quot;nofollow&quot; target=&quot;_NEW&quot;&gt;\nhttp://desibbrg.net/imghost/show.php?img=430137_Armaan.2003.DvDrip.1CD.X264.AAC.RRG.DADA..jpg.html&lt;/a&gt;\n\n\n-: Screens :-\n &lt;a href=&quot;\nhttp://desibbrg.net/imghost/show.php?img=430134_Armaan.2003.DvDrip.1CD.X264.AAC.RRG.DADA.DBBIANS.Com.mp4snapshot00.06.302013.03.1609.45.35.jpg.html&quot; rel=&quot;nofollow&quot; target=&quot;_NEW&quot;&gt;\nhttp://desibbrg.net/imghost/show.php?img=430134_Armaan.2003.DvDrip.1CD.X264.AAC.RRG.DADA.DBBIANS.Com.mp4snapshot00.06.302013.03.1609.45.35.jpg.html&lt;/a&gt; &lt;a href=&quot;\nhttp://desibbrg.net/imghost/show.php?img=430133_Armaan.2003.DvDrip.1CD.X264.AAC.RRG.DADA.DBBIANS.Com.mp4snapshot00.49.502013.03.1609.48.46.jpg.html&quot; rel=&quot;nofollow&quot; target=&quot;_NEW&quot;&gt;\nhttp://desibbrg.net/imghost/show.php?img=430133_Armaan.2003.DvDrip.1CD.X264.AAC.RRG.DADA.DBBIANS.Com.mp4snapshot00.49.502013.03.1609.48.46.jpg.html&lt;/a&gt; &lt;a href=&quot;\nhttp://desibbrg.net/imghost/show.php?img=430132_Armaan.2003.DvDrip.1CD.X264.AAC.RRG.DADA.DBBIANS.Com.mp4snapshot01.11.182013.03.1609.51.33.jpg.html&quot; rel=&quot;nofollow&quot; target=&quot;_NEW&quot;&gt;\nhttp://desibbrg.net/imghost/show.php?img=430132_Armaan.2003.DvDrip.1CD.X264.AAC.RRG.DADA.DBBIANS.Com.mp4snapshot01.11.182013.03.1609.51.33.jpg.html&lt;/a&gt; &lt;a href=&quot;\nhttp://desibbrg.net/imghost/show.php?img=430131_Armaan.2003.DvDrip.1CD.X264.AAC.RRG.DADA.DBBIANS.Com.mp4snapshot01.39.162013.03.1609.52.46.jpg.html&quot; rel=&quot;nofollow&quot; target=&quot;_NEW&quot;&gt;\nhttp://desibbrg.net/imghost/show.php?img=430131_Armaan.2003.DvDrip.1CD.X264.AAC.RRG.DADA.DBBIANS.Com.mp4snapshot01.39.162013.03.1609.52.46.jpg.html&lt;/a&gt; &lt;a href=&quot;\nhttp://desibbrg.net/imghost/show.php?img=430130_Armaan.2003.DvDrip.1CD.X264.AAC.RRG.DADA.DBBIANS.Com.mp4snapshot02.28.542013.03.1609.56.08.jpg.html&quot; rel=&quot;nofollow&quot; target=&quot;_NEW&quot;&gt;\nhttp://desibbrg.net/imghost/show.php?img=430130_Armaan.2003.DvDrip.1CD.X264.AAC.RRG.DADA.DBBIANS.Com.mp4snapshot02.28.542013.03.1609.56.08.jpg.html&lt;/a&gt;\n &lt;a href=&quot;\nhttp://desibbrg.net/imghost/show.php?img=430138_Armaan.2003.DvDrip.1CD.X264.AAC.RRG.DADA.DBBIANS.Comthumbs.jpg.html&quot; rel=&quot;nofollow&quot; target=&quot;_NEW&quot;&gt;\nhttp://desibbrg.net/imghost/show.php?img=430138_Armaan.2003.DvDrip.1CD.X264.AAC.RRG.DADA.DBBIANS.Comthumbs.jpg.html&lt;/a&gt;\n\n\n-: Info :-  \n\n\nGeneral\n\nFormat                           : MP4 Video\nFile size                        : 811 MiB\nDuration                         : 2h 32mn\nOverall bit rate                 : 743 Kbps\n\nVideo\nFormat                           : AVC\nFormat/Info                      : Advanced Video Codec\nFormat profile                   : &lt;a class=&quot;__cf_email__&quot; href=&quot;/cdn-cgi/l/email-protection&quot; data-cfemail=&quot;d69bb7bfb8969ae5f8e6&quot;&gt;[email&amp;#160;protected]&lt;/a&gt;&lt;script cf-hash='f9e31' type=&quot;text/javascript&quot;&gt;\n/* &lt;![CDATA[ */!function(){try{var t=&quot;currentScript&quot;in document?document.currentScript:function(){for(var t=document.getElementsByTagName(&quot;script&quot;),e=t.length;e--;)if(t[e].getAttribute(&quot;cf-hash&quot;))return t[e]}();if(t&amp;&amp;t.previousSibling){var e,r,n,i,c=t.previousSibling,a=c.getAttribute(&quot;data-cfemail&quot;);if(a){for(e=&quot;&quot;,r=parseInt(a.substr(0,2),16),n=2;a.length-n;n+=2)i=parseInt(a.substr(n,2),16)^r,e+=String.fromCharCode(i);e=document.createTextNode(e),c.parentNode.replaceChild(e,c)}}}catch(u){}}();/* ]]&gt; */&lt;/script&gt;\nFormat settings, CABAC           : Yes\nFormat settings, ReFrames        : 3 frames\nDuration                         : 2h 32mn\nBit rate                         : 606 Kbps\nWidth                            : 854 pixels\nHeight                           : 480 pixels\nDisplay aspect ratio             : 16:9\nFrame rate mode                  : Constant\nFrame rate                       : 25.000 fps\nColor space                      : YUV\nChroma subsampling               : 4:2:0\nBit depth                        : 8 bits\nScan type                        : Progressive\nBits/(Pixel*Frame)               : 0.059\nStream size                      : 662 MiB (82%)\n\nAudio\nFormat                           : AAC\nFormat/Info                      : Advanced Audio Codec\nFormat version                   : Version 4\nFormat profile                   : LC\nFormat settings, SBR             : No\nDuration                         : 2h 32mn\nBit rate                         : 129 Kbps\nChannel(s)                       : 2 channels\nChannel positions                : Front: L R\nSampling rate                    : 44.1 KHz\nBit depth                        : 16 bits\nStream size                      : 140 MiB (17%)\n\n\n &lt;a href=&quot;\nhttp://www.imdb.com/title/tt0331851/&quot; rel=&quot;nofollow&quot; target=&quot;_NEW&quot;&gt;\nhttp://www.imdb.com/title/tt0331851/&lt;/a&gt;\n\n\n    Genres:\nIndian Cinema, Drama, Family\n    Language:\nHindi\n    Running time:\n2:32:40\n    Released:\nAug 10, 2003\n\nCast &amp; Crew\nCast\n\n    Amitabh Bachchan\n    Anil Kapoor\n    Preity Zinta\n    Gracy Singh\n    Randhir Kapoor.\n\nDirectors\n\n    Honey Irani\n\nProducers\n\n    Dinesh Gandhi\n\nWriters\n\n    Javed Akhtar\n\n\n\nArmaan a Family Drama (2003) Synopsis: Dr. Siddharth Sinha is a dedicated selfless doctor who dreams of building a state-of-the-art hospital with all the modern instruments and amenities for patient care . His foster son Akash shares his dream . Akash falls in love with Neha Mathur , an anaesthetist in the same hospital . In a friend's party , Akash meets Sonia who is a spoilt daughter of a millionaire Gulshan Kapoor . Sonia develops an infatuation for Akash . Gulshan Kapoor proposes to Dr. Siddharth Sinha that he will donate a big sum of money to his hospital , on the condition that Akash marries Sonia . Dr. Siddharth Sinha declines but dies of a heart attack a few days later . Burdened with fulfilling his father's dream , Akash decides to marry Sonia sacrificing his own love . But even after marriage Sonia is jealous of Neha and constantly accuses Akash of infidelity which leaves him in a dilemma , torn between two women . \n","torrent":{"xt":"urn:btih:5bd3886d7157f6dbc7d24b37f006c6b5b328ccaf","amp;dn":"Armaan+2003+DvDrip+1CD+X264+AAC+%5BRRG+DBB%5D%5BDADA%5D+","amp;tr":["udp%3A%2F%2Ftracker.openbittorrent.com%3A80","udp%3A%2F%2Fopen.demonii.com%3A1337","udp%3A%2F%2Ftracker.coppersurfer.tk%3A6969","udp%3A%2F%2Fexodus.desync.com%3A6969"],"infoHash":"5bd3886d7157f6dbc7d24b37f006c6b5b328ccaf","infoHashBuffer":{"type":"Buffer","data":[91,211,136,109,113,87,246,219,199,210,75,55,240,6,198,181,179,40,204,175]},"announce":[],"urlList":[]}}